<?xml version="1.0" encoding="utf-8" standalone="no"?>
<!DOCTYPE svg PUBLIC "-//W3C//DTD SVG 1.1//EN"
  "http://www.w3.org/Graphics/SVG/1.1/DTD/svg11.dtd">
<svg xmlns:xlink="http://www.w3.org/1999/xlink" width="864pt" height="360pt" viewBox="0 0 864 360" xmlns="http://www.w3.org/2000/svg" version="1.1">
 <metadata>
  <rdf:RDF xmlns:dc="http://purl.org/dc/elements/1.1/" xmlns:cc="http://creativecommons.org/ns#" xmlns:rdf="http://www.w3.org/1999/02/22-rdf-syntax-ns#">
   <cc:Work>
    <dc:type rdf:resource="http://purl.org/dc/dcmitype/StillImage"/>
    <dc:date>2023-09-05T23:15:23.137741</dc:date>
    <dc:format>image/svg+xml</dc:format>
    <dc:creator>
     <cc:Agent>
      <dc:title>Matplotlib v3.6.3, https://matplotlib.org/</dc:title>
     </cc:Agent>
    </dc:creator>
   </cc:Work>
  </rdf:RDF>
 </metadata>
 <defs>
  <style type="text/css">*{stroke-linejoin: round; stroke-linecap: butt}</style>
 </defs>
 <g id="figure_1">
  <g id="patch_1">
   <path d="M 0 360 
L 864 360 
L 864 0 
L 0 0 
L 0 360 
z
" style="fill: none"/>
  </g>
  <g id="axes_1">
   <g id="patch_2">
    <path d="M 108 315 
L 777.6 315 
L 777.6 43.2 
L 108 43.2 
z
" style="fill: #ffffff"/>
   </g>
   <g id="patch_3">
    <path d="M 120.174545 158.170177 
L 136.407273 158.170177 
L 136.407273 111.203341 
L 120.174545 111.203341 
z
" clip-path="url(#p0041d98f3b)" style="fill: #1f77b4; opacity: 0.3"/>
   </g>
   <g id="patch_4">
    <path d="M 140.465455 158.170177 
L 156.698182 158.170177 
L 156.698182 170.57504 
L 140.465455 170.57504 
z
" clip-path="url(#p0041d98f3b)" style="fill: #1f77b4; opacity: 0.3"/>
   </g>
   <g id="patch_5">
    <path d="M 160.756364 158.170177 
L 176.989091 158.170177 
L 176.989091 139.987075 
L 160.756364 139.987075 
z
" clip-path="url(#p0041d98f3b)" style="fill: #1f77b4; opacity: 0.3"/>
   </g>
   <g id="patch_6">
    <path d="M 181.047273 158.170177 
L 197.28 158.170177 
L 197.28 165.717205 
L 181.047273 165.717205 
z
" clip-path="url(#p0041d98f3b)" style="fill: #1f77b4; opacity: 0.3"/>
   </g>
   <g id="patch_7">
    <path d="M 201.338182 158.170177 
L 217.570909 158.170177 
L 217.570909 142.59742 
L 201.338182 142.59742 
z
" clip-path="url(#p0041d98f3b)" style="fill: #1f77b4; opacity: 0.3"/>
   </g>
   <g id="patch_8">
    <path d="M 221.629091 158.170177 
L 237.861818 158.170177 
L 237.861818 176.329061 
L 221.629091 176.329061 
z
" clip-path="url(#p0041d98f3b)" style="fill: #1f77b4; opacity: 0.3"/>
   </g>
   <g id="patch_9">
    <path d="M 241.92 158.170177 
L 258.152727 158.170177 
L 258.152727 137.89987 
L 241.92 137.89987 
z
" clip-path="url(#p0041d98f3b)" style="fill: #1f77b4; opacity: 0.3"/>
   </g>
   <g id="patch_10">
    <path d="M 262.210909 158.170177 
L 278.443636 158.170177 
L 278.443636 66.948607 
L 262.210909 66.948607 
z
" clip-path="url(#p0041d98f3b)" style="fill: #1f77b4; opacity: 0.3"/>
   </g>
   <g id="patch_11">
    <path d="M 282.501818 158.170177 
L 298.734545 158.170177 
L 298.734545 180.033071 
L 282.501818 180.033071 
z
" clip-path="url(#p0041d98f3b)" style="fill: #1f77b4; opacity: 0.3"/>
   </g>
   <g id="patch_12">
    <path d="M 302.792727 158.170177 
L 319.025455 158.170177 
L 319.025455 157.697716 
L 302.792727 157.697716 
z
" clip-path="url(#p0041d98f3b)" style="fill: #1f77b4; opacity: 0.3"/>
   </g>
   <g id="patch_13">
    <path d="M 323.083636 158.170177 
L 339.316364 158.170177 
L 339.316364 116.198961 
L 323.083636 116.198961 
z
" clip-path="url(#p0041d98f3b)" style="fill: #1f77b4; opacity: 0.3"/>
   </g>
   <g id="patch_14">
    <path d="M 343.374545 158.170177 
L 359.607273 158.170177 
L 359.607273 158.561184 
L 343.374545 158.561184 
z
" clip-path="url(#p0041d98f3b)" style="fill: #1f77b4; opacity: 0.3"/>
   </g>
   <g id="patch_15">
    <path d="M 363.665455 158.170177 
L 379.898182 158.170177 
L 379.898182 157.943846 
L 363.665455 157.943846 
z
" clip-path="url(#p0041d98f3b)" style="fill: #1f77b4; opacity: 0.3"/>
   </g>
   <g id="patch_16">
    <path d="M 383.956364 158.170177 
L 400.189091 158.170177 
L 400.189091 144.470061 
L 383.956364 144.470061 
z
" clip-path="url(#p0041d98f3b)" style="fill: #1f77b4; opacity: 0.3"/>
   </g>
   <g id="patch_17">
    <path d="M 404.247273 158.170177 
L 420.48 158.170177 
L 420.48 217.545102 
L 404.247273 217.545102 
z
" clip-path="url(#p0041d98f3b)" style="fill: #1f77b4; opacity: 0.3"/>
   </g>
   <g id="patch_18">
    <path d="M 424.538182 158.170177 
L 440.770909 158.170177 
L 440.770909 166.650476 
L 424.538182 166.650476 
z
" clip-path="url(#p0041d98f3b)" style="fill: #1f77b4; opacity: 0.3"/>
   </g>
   <g id="patch_19">
    <path d="M 444.829091 158.170177 
L 461.061818 158.170177 
L 461.061818 132.36481 
L 444.829091 132.36481 
z
" clip-path="url(#p0041d98f3b)" style="fill: #1f77b4; opacity: 0.3"/>
   </g>
   <g id="patch_20">
    <path d="M 465.12 158.170177 
L 481.352727 158.170177 
L 481.352727 117.840133 
L 465.12 117.840133 
z
" clip-path="url(#p0041d98f3b)" style="fill: #1f77b4; opacity: 0.3"/>
   </g>
   <g id="patch_21">
    <path d="M 485.410909 158.170177 
L 501.643636 158.170177 
L 501.643636 290.045021 
L 485.410909 290.045021 
z
" clip-path="url(#p0041d98f3b)" style="fill: #1f77b4; opacity: 0.3"/>
   </g>
   <g id="patch_22">
    <path d="M 505.701818 158.170177 
L 521.934545 158.170177 
L 521.934545 140.468719 
L 505.701818 140.468719 
z
" clip-path="url(#p0041d98f3b)" style="fill: #1f77b4; opacity: 0.3"/>
   </g>
   <g id="patch_23">
    <path d="M 525.992727 158.170177 
L 542.225455 158.170177 
L 542.225455 107.63325 
L 525.992727 107.63325 
z
" clip-path="url(#p0041d98f3b)" style="fill: #1f77b4; opacity: 0.3"/>
   </g>
   <g id="patch_24">
    <path d="M 546.283636 158.170177 
L 562.516364 158.170177 
L 562.516364 108.831276 
L 546.283636 108.831276 
z
" clip-path="url(#p0041d98f3b)" style="fill: #1f77b4; opacity: 0.3"/>
   </g>
   <g id="patch_25">
    <path d="M 566.574545 158.170177 
L 582.807273 158.170177 
L 582.807273 146.231993 
L 566.574545 146.231993 
z
" clip-path="url(#p0041d98f3b)" style="fill: #1f77b4; opacity: 0.3"/>
   </g>
   <g id="patch_26">
    <path d="M 586.865455 158.170177 
L 603.098182 158.170177 
L 603.098182 107.391428 
L 586.865455 107.391428 
z
" clip-path="url(#p0041d98f3b)" style="fill: #1f77b4; opacity: 0.3"/>
   </g>
   <g id="patch_27">
    <path d="M 607.156364 158.170177 
L 623.389091 158.170177 
L 623.389091 134.228233 
L 607.156364 134.228233 
z
" clip-path="url(#p0041d98f3b)" style="fill: #1f77b4; opacity: 0.3"/>
   </g>
   <g id="patch_28">
    <path d="M 627.447273 158.170177 
L 643.68 158.170177 
L 643.68 126.050925 
L 627.447273 126.050925 
z
" clip-path="url(#p0041d98f3b)" style="fill: #1f77b4; opacity: 0.3"/>
   </g>
   <g id="patch_29">
    <path d="M 647.738182 158.170177 
L 663.970909 158.170177 
L 663.970909 132.118553 
L 647.738182 132.118553 
z
" clip-path="url(#p0041d98f3b)" style="fill: #1f77b4; opacity: 0.3"/>
   </g>
   <g id="patch_30">
    <path d="M 668.029091 158.170177 
L 684.261818 158.170177 
L 684.261818 105.371079 
L 668.029091 105.371079 
z
" clip-path="url(#p0041d98f3b)" style="fill: #1f77b4; opacity: 0.3"/>
   </g>
   <g id="patch_31">
    <path d="M 688.32 158.170177 
L 704.552727 158.170177 
L 704.552727 99.963748 
L 688.32 99.963748 
z
" clip-path="url(#p0041d98f3b)" style="fill: #1f77b4; opacity: 0.3"/>
   </g>
   <g id="patch_32">
    <path d="M 708.610909 158.170177 
L 724.843636 158.170177 
L 724.843636 131.431268 
L 708.610909 131.431268 
z
" clip-path="url(#p0041d98f3b)" style="fill: #1f77b4; opacity: 0.3"/>
   </g>
   <g id="patch_33">
    <path d="M 728.901818 158.170177 
L 745.134545 158.170177 
L 745.134545 122.667559 
L 728.901818 122.667559 
z
" clip-path="url(#p0041d98f3b)" style="fill: #1f77b4; opacity: 0.3"/>
   </g>
   <g id="patch_34">
    <path d="M 749.192727 158.170177 
L 765.425455 158.170177 
L 765.425455 118.924787 
L 749.192727 118.924787 
z
" clip-path="url(#p0041d98f3b)" style="fill: #1f77b4; opacity: 0.3"/>
   </g>
   <g id="matplotlib.axis_1">
    <g id="xtick_1">
     <g id="line2d_1">
      <defs>
       <path id="ma4a13986d0" d="M 0 0 
L 0 3.5 
" style="stroke: #000000; stroke-width: 0.8"/>
      </defs>
      <g>
       <use xlink:href="#ma4a13986d0" x="128.290909" y="315" style="stroke: #000000; stroke-width: 0.8"/>
      </g>
     </g>
     <g id="text_1">
      <!-- $E \rightarrow E$ Const -->
      <g transform="translate(67.988785 427.805718) rotate(-60)">
       <text>
        <tspan style="font: oblique 20px 'DejaVu Sans'" x="0 37.1875" y="-0.15625">EE</tspan>
        <tspan style="font: 20px 'DejaVu Sans'" x="16.533203 49.824219 56.181641 70.146484 82.382812 95.058594 105.478516" y="-0.15625">→ Const</tspan>
       </text>
      </g>
     </g>
    </g>
    <g id="xtick_2">
     <g id="line2d_2">
      <g>
       <use xlink:href="#ma4a13986d0" x="148.581818" y="315" style="stroke: #000000; stroke-width: 0.8"/>
      </g>
     </g>
     <g id="text_2">
      <!-- $E \rightarrow E$ $y$ -->
      <g transform="translate(110.844511 388.641058) rotate(-60)">
       <text>
        <tspan style="font: oblique 20px 'DejaVu Sans'" x="0 37.1875 56.181641" y="-0.421875">EEy</tspan>
        <tspan style="font: 20px 'DejaVu Sans'" x="16.533203 49.824219" y="-0.421875">→ </tspan>
       </text>
      </g>
     </g>
    </g>
    <g id="xtick_3">
     <g id="line2d_3">
      <g>
       <use xlink:href="#ma4a13986d0" x="168.872727" y="315" style="stroke: #000000; stroke-width: 0.8"/>
      </g>
     </g>
     <g id="text_3">
      <!-- $E \rightarrow E$ $x$ -->
      <g transform="translate(131.170603 388.66137) rotate(-60)">
       <text>
        <tspan style="font: oblique 20px 'DejaVu Sans'" x="0 37.1875 56.181641" y="-0.421875">EEx</tspan>
        <tspan style="font: 20px 'DejaVu Sans'" x="16.533203 49.824219" y="-0.421875">→ </tspan>
       </text>
      </g>
     </g>
    </g>
    <g id="xtick_4">
     <g id="line2d_4">
      <g>
       <use xlink:href="#ma4a13986d0" x="189.163636" y="315" style="stroke: #000000; stroke-width: 0.8"/>
      </g>
     </g>
     <g id="text_4">
      <!-- $E \rightarrow E$ $x \, y$ -->
      <g transform="translate(143.92633 401.631439) rotate(-60)">
       <text>
        <tspan style="font: oblique 20px 'DejaVu Sans'" x="0 37.1875 56.181641 71.264713" y="-0.421875">EExy</tspan>
        <tspan style="font: 20px 'DejaVu Sans'" x="16.533203 49.824219" y="-0.421875">→ </tspan>
       </text>
      </g>
     </g>
    </g>
    <g id="xtick_5">
     <g id="line2d_5">
      <g>
       <use xlink:href="#ma4a13986d0" x="209.454545" y="315" style="stroke: #000000; stroke-width: 0.8"/>
      </g>
     </g>
     <g id="text_5">
      <!-- $E \rightarrow E$ $y_{int}$ -->
      <g transform="translate(162.317239 404.922335) rotate(-60)">
       <text>
        <tspan style="font: oblique 20px 'DejaVu Sans'" x="0 37.1875 56.181641" y="-0.421875">EEy</tspan>
        <tspan style="font: 20px 'DejaVu Sans'" x="16.533203 49.824219" y="-0.421875">→ </tspan>
        <tspan style="font: oblique 14px 'DejaVu Sans'" x="68.017578 71.907227 80.780273" y="2.859375">int</tspan>
       </text>
      </g>
     </g>
    </g>
    <g id="xtick_6">
     <g id="line2d_6">
      <g>
       <use xlink:href="#ma4a13986d0" x="229.745455" y="315" style="stroke: #000000; stroke-width: 0.8"/>
      </g>
     </g>
     <g id="text_6">
      <!-- $E \rightarrow E$ $x \, y_{int}$ -->
      <g transform="translate(175.108148 417.912716) rotate(-60)">
       <text>
        <tspan style="font: oblique 20px 'DejaVu Sans'" x="0 37.1875 56.181641 71.264713" y="-0.421875">EExy</tspan>
        <tspan style="font: 20px 'DejaVu Sans'" x="16.533203 49.824219" y="-0.421875">→ </tspan>
        <tspan style="font: oblique 14px 'DejaVu Sans'" x="83.100651 86.990299 95.863346" y="2.859375">int</tspan>
       </text>
      </g>
     </g>
    </g>
    <g id="xtick_7">
     <g id="line2d_7">
      <g>
       <use xlink:href="#ma4a13986d0" x="250.036364" y="315" style="stroke: #000000; stroke-width: 0.8"/>
      </g>
     </g>
     <g id="text_7">
      <!-- $E \rightarrow E$ $x_{int}$ -->
      <g transform="translate(202.934239 404.942648) rotate(-60)">
       <text>
        <tspan style="font: oblique 20px 'DejaVu Sans'" x="0 37.1875 56.181641" y="-0.421875">EEx</tspan>
        <tspan style="font: 20px 'DejaVu Sans'" x="16.533203 49.824219" y="-0.421875">→ </tspan>
        <tspan style="font: oblique 14px 'DejaVu Sans'" x="68.017578 71.907227 80.780273" y="2.859375">int</tspan>
       </text>
      </g>
     </g>
    </g>
    <g id="xtick_8">
     <g id="line2d_8">
      <g>
       <use xlink:href="#ma4a13986d0" x="270.327273" y="315" style="stroke: #000000; stroke-width: 0.8"/>
      </g>
     </g>
     <g id="text_8">
      <!-- $E \rightarrow E$ $x_{int} \, y$ -->
      <g transform="translate(215.689966 417.912716) rotate(-60)">
       <text>
        <tspan style="font: oblique 20px 'DejaVu Sans'" x="0 37.1875 56.181641 90.063542" y="-0.421875">EExy</tspan>
        <tspan style="font: 20px 'DejaVu Sans'" x="16.533203 49.824219" y="-0.421875">→ </tspan>
        <tspan style="font: oblique 14px 'DejaVu Sans'" x="68.017578 71.907227 80.780273" y="2.859375">int</tspan>
       </text>
      </g>
     </g>
    </g>
    <g id="xtick_9">
     <g id="line2d_9">
      <g>
       <use xlink:href="#ma4a13986d0" x="290.618182" y="315" style="stroke: #000000; stroke-width: 0.8"/>
      </g>
     </g>
     <g id="text_9">
      <!-- $E \rightarrow E$ $y_{int} \, y$ -->
      <g transform="translate(235.980875 417.912716) rotate(-60)">
       <text>
        <tspan style="font: oblique 20px 'DejaVu Sans'" x="0 37.1875 56.181641 90.063542" y="-0.421875">EEyy</tspan>
        <tspan style="font: 20px 'DejaVu Sans'" x="16.533203 49.824219" y="-0.421875">→ </tspan>
        <tspan style="font: oblique 14px 'DejaVu Sans'" x="68.017578 71.907227 80.780273" y="2.859375">int</tspan>
       </text>
      </g>
     </g>
    </g>
    <g id="xtick_10">
     <g id="line2d_10">
      <g>
       <use xlink:href="#ma4a13986d0" x="310.909091" y="315" style="stroke: #000000; stroke-width: 0.8"/>
      </g>
     </g>
     <g id="text_10">
      <!-- $E \rightarrow E$ $x_{int} \, x$ -->
      <g transform="translate(256.306966 417.933029) rotate(-60)">
       <text>
        <tspan style="font: oblique 20px 'DejaVu Sans'" x="0 37.1875 56.181641 90.063542" y="-0.421875">EExx</tspan>
        <tspan style="font: 20px 'DejaVu Sans'" x="16.533203 49.824219" y="-0.421875">→ </tspan>
        <tspan style="font: oblique 14px 'DejaVu Sans'" x="68.017578 71.907227 80.780273" y="2.859375">int</tspan>
       </text>
      </g>
     </g>
    </g>
    <g id="xtick_11">
     <g id="line2d_11">
      <g>
       <use xlink:href="#ma4a13986d0" x="331.2" y="315" style="stroke: #000000; stroke-width: 0.8"/>
      </g>
     </g>
     <g id="text_11">
      <!-- $E \rightarrow E$ $w$ -->
      <g transform="translate(291.297876 392.471882) rotate(-60)">
       <text>
        <tspan style="font: oblique 20px 'DejaVu Sans'" x="0 37.1875 56.181641" y="-0.421875">EEw</tspan>
        <tspan style="font: 20px 'DejaVu Sans'" x="16.533203 49.824219" y="-0.421875">→ </tspan>
       </text>
      </g>
     </g>
    </g>
    <g id="xtick_12">
     <g id="line2d_12">
      <g>
       <use xlink:href="#ma4a13986d0" x="351.490909" y="315" style="stroke: #000000; stroke-width: 0.8"/>
      </g>
     </g>
     <g id="text_12">
      <!-- $E \rightarrow E$ $w \, y$ -->
      <g transform="translate(303.953602 405.615155) rotate(-60)">
       <text>
        <tspan style="font: oblique 20px 'DejaVu Sans'" x="0 37.1875 56.181641 75.786198" y="-0.421875">EEwy</tspan>
        <tspan style="font: 20px 'DejaVu Sans'" x="16.533203 49.824219" y="-0.421875">→ </tspan>
       </text>
      </g>
     </g>
    </g>
    <g id="xtick_13">
     <g id="line2d_13">
      <g>
       <use xlink:href="#ma4a13986d0" x="371.781818" y="315" style="stroke: #000000; stroke-width: 0.8"/>
      </g>
     </g>
     <g id="text_13">
      <!-- $E \rightarrow E$ $w \, x$ -->
      <g transform="translate(324.279694 405.635468) rotate(-60)">
       <text>
        <tspan style="font: oblique 20px 'DejaVu Sans'" x="0 37.1875 56.181641 75.786198" y="-0.421875">EEwx</tspan>
        <tspan style="font: 20px 'DejaVu Sans'" x="16.533203 49.824219" y="-0.421875">→ </tspan>
       </text>
      </g>
     </g>
    </g>
    <g id="xtick_14">
     <g id="line2d_14">
      <g>
       <use xlink:href="#ma4a13986d0" x="392.072727" y="315" style="stroke: #000000; stroke-width: 0.8"/>
      </g>
     </g>
     <g id="text_14">
      <!-- $E \rightarrow E$ $w \, x \, y$ -->
      <g transform="translate(337.035421 418.605537) rotate(-60)">
       <text>
        <tspan style="font: oblique 20px 'DejaVu Sans'" x="0 37.1875 56.181641 75.786198 90.869271" y="-0.421875">EEwxy</tspan>
        <tspan style="font: 20px 'DejaVu Sans'" x="16.533203 49.824219" y="-0.421875">→ </tspan>
       </text>
      </g>
     </g>
    </g>
    <g id="xtick_15">
     <g id="line2d_15">
      <g>
       <use xlink:href="#ma4a13986d0" x="412.363636" y="315" style="stroke: #000000; stroke-width: 0.8"/>
      </g>
     </g>
     <g id="text_15">
      <!-- $E \rightarrow E$ $w y_{int}$ -->
      <g transform="translate(357.12633 418.951947) rotate(-60)">
       <text>
        <tspan style="font: oblique 20px 'DejaVu Sans'" x="0 37.1875 56.181641 72.539062" y="-0.421875">EEwy</tspan>
        <tspan style="font: 20px 'DejaVu Sans'" x="16.533203 49.824219" y="-0.421875">→ </tspan>
        <tspan style="font: oblique 14px 'DejaVu Sans'" x="84.375 88.264648 97.137695" y="2.859375">int</tspan>
       </text>
      </g>
     </g>
    </g>
    <g id="xtick_16">
     <g id="line2d_16">
      <g>
       <use xlink:href="#ma4a13986d0" x="432.654545" y="315" style="stroke: #000000; stroke-width: 0.8"/>
      </g>
     </g>
     <g id="text_16">
      <!-- $E \rightarrow E$ $w x \, y_{int}$ -->
      <g transform="translate(369.817239 432.115533) rotate(-60)">
       <text>
        <tspan style="font: oblique 20px 'DejaVu Sans'" x="0 37.1875 56.181641 72.539062 87.622135" y="-0.421875">EEwxy</tspan>
        <tspan style="font: 20px 'DejaVu Sans'" x="16.533203 49.824219" y="-0.421875">→ </tspan>
        <tspan style="font: oblique 14px 'DejaVu Sans'" x="99.458073 103.347721 112.220768" y="2.859375">int</tspan>
       </text>
      </g>
     </g>
    </g>
    <g id="xtick_17">
     <g id="line2d_17">
      <g>
       <use xlink:href="#ma4a13986d0" x="452.945455" y="315" style="stroke: #000000; stroke-width: 0.8"/>
      </g>
     </g>
     <g id="text_17">
      <!-- $E \rightarrow E$ $w x_{int}$ -->
      <g transform="translate(397.74333 418.972259) rotate(-60)">
       <text>
        <tspan style="font: oblique 20px 'DejaVu Sans'" x="0 37.1875 56.181641 72.539062" y="-0.421875">EEwx</tspan>
        <tspan style="font: 20px 'DejaVu Sans'" x="16.533203 49.824219" y="-0.421875">→ </tspan>
        <tspan style="font: oblique 14px 'DejaVu Sans'" x="84.375 88.264648 97.137695" y="2.859375">int</tspan>
       </text>
      </g>
     </g>
    </g>
    <g id="xtick_18">
     <g id="line2d_18">
      <g>
       <use xlink:href="#ma4a13986d0" x="473.236364" y="315" style="stroke: #000000; stroke-width: 0.8"/>
      </g>
     </g>
     <g id="text_18">
      <!-- $E \rightarrow E$ $w x_{int} \, y$ -->
      <g transform="translate(410.399057 432.115533) rotate(-60)">
       <text>
        <tspan style="font: oblique 20px 'DejaVu Sans'" x="0 37.1875 56.181641 72.539062 106.420963" y="-0.421875">EEwxy</tspan>
        <tspan style="font: 20px 'DejaVu Sans'" x="16.533203 49.824219" y="-0.421875">→ </tspan>
        <tspan style="font: oblique 14px 'DejaVu Sans'" x="84.375 88.264648 97.137695" y="2.859375">int</tspan>
       </text>
      </g>
     </g>
    </g>
    <g id="xtick_19">
     <g id="line2d_19">
      <g>
       <use xlink:href="#ma4a13986d0" x="493.527273" y="315" style="stroke: #000000; stroke-width: 0.8"/>
      </g>
     </g>
     <g id="text_19">
      <!-- $E \rightarrow E$ $w y_{int} \, y$ -->
      <g transform="translate(430.689966 432.115533) rotate(-60)">
       <text>
        <tspan style="font: oblique 20px 'DejaVu Sans'" x="0 37.1875 56.181641 72.539062 106.420963" y="-0.421875">EEwyy</tspan>
        <tspan style="font: 20px 'DejaVu Sans'" x="16.533203 49.824219" y="-0.421875">→ </tspan>
        <tspan style="font: oblique 14px 'DejaVu Sans'" x="84.375 88.264648 97.137695" y="2.859375">int</tspan>
       </text>
      </g>
     </g>
    </g>
    <g id="xtick_20">
     <g id="line2d_20">
      <g>
       <use xlink:href="#ma4a13986d0" x="513.818182" y="315" style="stroke: #000000; stroke-width: 0.8"/>
      </g>
     </g>
     <g id="text_20">
      <!-- $E \rightarrow E$ $w x_{int} \, x$ -->
      <g transform="translate(451.016057 432.135845) rotate(-60)">
       <text>
        <tspan style="font: oblique 20px 'DejaVu Sans'" x="0 37.1875 56.181641 72.539062 106.420963" y="-0.421875">EEwxx</tspan>
        <tspan style="font: 20px 'DejaVu Sans'" x="16.533203 49.824219" y="-0.421875">→ </tspan>
        <tspan style="font: oblique 14px 'DejaVu Sans'" x="84.375 88.264648 97.137695" y="2.859375">int</tspan>
       </text>
      </g>
     </g>
    </g>
    <g id="xtick_21">
     <g id="line2d_21">
      <g>
       <use xlink:href="#ma4a13986d0" x="534.109091" y="315" style="stroke: #000000; stroke-width: 0.8"/>
      </g>
     </g>
     <g id="text_21">
      <!-- $\tau \, y_{int}$ -->
      <g transform="translate(507.471784 369.415294) rotate(-60)">
       <text>
        <tspan style="font: oblique 20px 'DejaVu Sans'" x="0 15.288151" y="-0.0625">τy</tspan>
        <tspan style="font: oblique 14px 'DejaVu Sans'" x="27.124088 31.013737 39.886784" y="3.21875">int</tspan>
       </text>
      </g>
     </g>
    </g>
    <g id="xtick_22">
     <g id="line2d_22">
      <g>
       <use xlink:href="#ma4a13986d0" x="554.4" y="315" style="stroke: #000000; stroke-width: 0.8"/>
      </g>
     </g>
     <g id="text_22">
      <!-- $\tau \, x \, y_{int}$ -->
      <g transform="translate(520.162693 382.57888) rotate(-60)">
       <text>
        <tspan style="font: oblique 20px 'DejaVu Sans'" x="0 15.288151 30.371224" y="-0.0625">τxy</tspan>
        <tspan style="font: oblique 14px 'DejaVu Sans'" x="42.207161 46.09681 54.969856" y="3.21875">int</tspan>
       </text>
      </g>
     </g>
    </g>
    <g id="xtick_23">
     <g id="line2d_23">
      <g>
       <use xlink:href="#ma4a13986d0" x="574.690909" y="315" style="stroke: #000000; stroke-width: 0.8"/>
      </g>
     </g>
     <g id="text_23">
      <!-- $\tau \, x_{int}$ -->
      <g transform="translate(548.088785 369.435606) rotate(-60)">
       <text>
        <tspan style="font: oblique 20px 'DejaVu Sans'" x="0 15.288151" y="-0.0625">τx</tspan>
        <tspan style="font: oblique 14px 'DejaVu Sans'" x="27.124088 31.013737 39.886784" y="3.21875">int</tspan>
       </text>
      </g>
     </g>
    </g>
    <g id="xtick_24">
     <g id="line2d_24">
      <g>
       <use xlink:href="#ma4a13986d0" x="594.981818" y="315" style="stroke: #000000; stroke-width: 0.8"/>
      </g>
     </g>
     <g id="text_24">
      <!-- $\tau \, x_{int} \, y$ -->
      <g transform="translate(560.744511 382.57888) rotate(-60)">
       <text>
        <tspan style="font: oblique 20px 'DejaVu Sans'" x="0 15.288151 49.170052" y="-0.0625">τxy</tspan>
        <tspan style="font: oblique 14px 'DejaVu Sans'" x="27.124088 31.013737 39.886784" y="3.21875">int</tspan>
       </text>
      </g>
     </g>
    </g>
    <g id="xtick_25">
     <g id="line2d_25">
      <g>
       <use xlink:href="#ma4a13986d0" x="615.272727" y="315" style="stroke: #000000; stroke-width: 0.8"/>
      </g>
     </g>
     <g id="text_25">
      <!-- $\tau \, y_{int} \, y$ -->
      <g transform="translate(581.035421 382.57888) rotate(-60)">
       <text>
        <tspan style="font: oblique 20px 'DejaVu Sans'" x="0 15.288151 49.170052" y="-0.0625">τyy</tspan>
        <tspan style="font: oblique 14px 'DejaVu Sans'" x="27.124088 31.013737 39.886784" y="3.21875">int</tspan>
       </text>
      </g>
     </g>
    </g>
    <g id="xtick_26">
     <g id="line2d_26">
      <g>
       <use xlink:href="#ma4a13986d0" x="635.563636" y="315" style="stroke: #000000; stroke-width: 0.8"/>
      </g>
     </g>
     <g id="text_26">
      <!-- $\tau \, x_{int} \, x$ -->
      <g transform="translate(601.361512 382.599192) rotate(-60)">
       <text>
        <tspan style="font: oblique 20px 'DejaVu Sans'" x="0 15.288151 49.170052" y="-0.0625">τxx</tspan>
        <tspan style="font: oblique 14px 'DejaVu Sans'" x="27.124088 31.013737 39.886784" y="3.21875">int</tspan>
       </text>
      </g>
     </g>
    </g>
    <g id="xtick_27">
     <g id="line2d_27">
      <g>
       <use xlink:href="#ma4a13986d0" x="655.854545" y="315" style="stroke: #000000; stroke-width: 0.8"/>
      </g>
     </g>
     <g id="text_27">
      <!-- $\tau \, w y_{int}$ -->
      <g transform="translate(621.017239 383.61811) rotate(-60)">
       <text>
        <tspan style="font: oblique 20px 'DejaVu Sans'" x="0 15.288151 31.645573" y="-0.0625">τwy</tspan>
        <tspan style="font: oblique 14px 'DejaVu Sans'" x="43.48151 47.371159 56.244206" y="3.21875">int</tspan>
       </text>
      </g>
     </g>
    </g>
    <g id="xtick_28">
     <g id="line2d_28">
      <g>
       <use xlink:href="#ma4a13986d0" x="676.145455" y="315" style="stroke: #000000; stroke-width: 0.8"/>
      </g>
     </g>
     <g id="text_28">
      <!-- $\tau \, w x \, y_{int}$ -->
      <g transform="translate(633.808148 396.608491) rotate(-60)">
       <text>
        <tspan style="font: oblique 20px 'DejaVu Sans'" x="0 15.288151 31.645573 46.728646" y="-0.0625">τwxy</tspan>
        <tspan style="font: oblique 14px 'DejaVu Sans'" x="58.564583 62.454231 71.327278" y="3.21875">int</tspan>
       </text>
      </g>
     </g>
    </g>
    <g id="xtick_29">
     <g id="line2d_29">
      <g>
       <use xlink:href="#ma4a13986d0" x="696.436364" y="315" style="stroke: #000000; stroke-width: 0.8"/>
      </g>
     </g>
     <g id="text_29">
      <!-- $\tau \, w x_{int}$ -->
      <g transform="translate(661.634239 383.638423) rotate(-60)">
       <text>
        <tspan style="font: oblique 20px 'DejaVu Sans'" x="0 15.288151 31.645573" y="-0.0625">τwx</tspan>
        <tspan style="font: oblique 14px 'DejaVu Sans'" x="43.48151 47.371159 56.244206" y="3.21875">int</tspan>
       </text>
      </g>
     </g>
    </g>
    <g id="xtick_30">
     <g id="line2d_30">
      <g>
       <use xlink:href="#ma4a13986d0" x="716.727273" y="315" style="stroke: #000000; stroke-width: 0.8"/>
      </g>
     </g>
     <g id="text_30">
      <!-- $\tau \, w x_{int} \, y$ -->
      <g transform="translate(674.389966 396.608491) rotate(-60)">
       <text>
        <tspan style="font: oblique 20px 'DejaVu Sans'" x="0 15.288151 31.645573 65.527474" y="-0.0625">τwxy</tspan>
        <tspan style="font: oblique 14px 'DejaVu Sans'" x="43.48151 47.371159 56.244206" y="3.21875">int</tspan>
       </text>
      </g>
     </g>
    </g>
    <g id="xtick_31">
     <g id="line2d_31">
      <g>
       <use xlink:href="#ma4a13986d0" x="737.018182" y="315" style="stroke: #000000; stroke-width: 0.8"/>
      </g>
     </g>
     <g id="text_31">
      <!-- $\tau \, w y_{int} \, y$ -->
      <g transform="translate(694.680875 396.608491) rotate(-60)">
       <text>
        <tspan style="font: oblique 20px 'DejaVu Sans'" x="0 15.288151 31.645573 65.527474" y="-0.0625">τwyy</tspan>
        <tspan style="font: oblique 14px 'DejaVu Sans'" x="43.48151 47.371159 56.244206" y="3.21875">int</tspan>
       </text>
      </g>
     </g>
    </g>
    <g id="xtick_32">
     <g id="line2d_32">
      <g>
       <use xlink:href="#ma4a13986d0" x="757.309091" y="315" style="stroke: #000000; stroke-width: 0.8"/>
      </g>
     </g>
     <g id="text_32">
      <!-- $\tau \, w x_{int} \, x$ -->
      <g transform="translate(715.006966 396.628804) rotate(-60)">
       <text>
        <tspan style="font: oblique 20px 'DejaVu Sans'" x="0 15.288151 31.645573 65.527474" y="-0.0625">τwxx</tspan>
        <tspan style="font: oblique 14px 'DejaVu Sans'" x="43.48151 47.371159 56.244206" y="3.21875">int</tspan>
       </text>
      </g>
     </g>
    </g>
   </g>
   <g id="matplotlib.axis_2">
    <g id="ytick_1">
     <g id="line2d_33">
      <defs>
       <path id="m81faed035d" d="M 0 0 
L -3.5 0 
" style="stroke: #000000; stroke-width: 0.8"/>
      </defs>
      <g>
       <use xlink:href="#m81faed035d" x="108" y="305.415911" style="stroke: #000000; stroke-width: 0.8"/>
      </g>
     </g>
     <g id="text_33">
      <text style="font: 20px 'DejaVu Sans', 'Bitstream Vera Sans', 'Computer Modern Sans Serif', 'Lucida Grande', 'Verdana', 'Geneva', 'Lucid', 'Arial', 'Helvetica', 'Avant Garde', sans-serif; text-anchor: end" x="101" y="313.014348" transform="rotate(-0 101 313.014348)">−0.03</text>
     </g>
    </g>
    <g id="ytick_2">
     <g id="line2d_34">
      <g>
       <use xlink:href="#m81faed035d" x="108" y="256.333999" style="stroke: #000000; stroke-width: 0.8"/>
      </g>
     </g>
     <g id="text_34">
      <text style="font: 20px 'DejaVu Sans', 'Bitstream Vera Sans', 'Computer Modern Sans Serif', 'Lucida Grande', 'Verdana', 'Geneva', 'Lucid', 'Arial', 'Helvetica', 'Avant Garde', sans-serif; text-anchor: end" x="101" y="263.932437" transform="rotate(-0 101 263.932437)">−0.02</text>
     </g>
    </g>
    <g id="ytick_3">
     <g id="line2d_35">
      <g>
       <use xlink:href="#m81faed035d" x="108" y="207.252088" style="stroke: #000000; stroke-width: 0.8"/>
      </g>
     </g>
     <g id="text_35">
      <text style="font: 20px 'DejaVu Sans', 'Bitstream Vera Sans', 'Computer Modern Sans Serif', 'Lucida Grande', 'Verdana', 'Geneva', 'Lucid', 'Arial', 'Helvetica', 'Avant Garde', sans-serif; text-anchor: end" x="101" y="214.850526" transform="rotate(-0 101 214.850526)">−0.01</text>
     </g>
    </g>
    <g id="ytick_4">
     <g id="line2d_36">
      <g>
       <use xlink:href="#m81faed035d" x="108" y="158.170177" style="stroke: #000000; stroke-width: 0.8"/>
      </g>
     </g>
     <g id="text_36">
      <text style="font: 20px 'DejaVu Sans', 'Bitstream Vera Sans', 'Computer Modern Sans Serif', 'Lucida Grande', 'Verdana', 'Geneva', 'Lucid', 'Arial', 'Helvetica', 'Avant Garde', sans-serif; text-anchor: end" x="101" y="165.768615" transform="rotate(-0 101 165.768615)">0.00</text>
     </g>
    </g>
    <g id="ytick_5">
     <g id="line2d_37">
      <g>
       <use xlink:href="#m81faed035d" x="108" y="109.088266" style="stroke: #000000; stroke-width: 0.8"/>
      </g>
     </g>
     <g id="text_37">
      <text style="font: 20px 'DejaVu Sans', 'Bitstream Vera Sans', 'Computer Modern Sans Serif', 'Lucida Grande', 'Verdana', 'Geneva', 'Lucid', 'Arial', 'Helvetica', 'Avant Garde', sans-serif; text-anchor: end" x="101" y="116.686703" transform="rotate(-0 101 116.686703)">0.01</text>
     </g>
    </g>
    <g id="ytick_6">
     <g id="line2d_38">
      <g>
       <use xlink:href="#m81faed035d" x="108" y="60.006355" style="stroke: #000000; stroke-width: 0.8"/>
      </g>
     </g>
     <g id="text_38">
      <text style="font: 20px 'DejaVu Sans', 'Bitstream Vera Sans', 'Computer Modern Sans Serif', 'Lucida Grande', 'Verdana', 'Geneva', 'Lucid', 'Arial', 'Helvetica', 'Avant Garde', sans-serif; text-anchor: end" x="101" y="67.604792" transform="rotate(-0 101 67.604792)">0.02</text>
     </g>
    </g>
    <g id="text_39">
     <text style="font: 20px 'DejaVu Sans', 'Bitstream Vera Sans', 'Computer Modern Sans Serif', 'Lucida Grande', 'Verdana', 'Geneva', 'Lucid', 'Arial', 'Helvetica', 'Avant Garde', sans-serif; text-anchor: middle" x="31.55" y="179.1" transform="rotate(-90 31.55 179.1)">Coefficient</text>
    </g>
   </g>
   <g id="LineCollection_1">
    <path d="M 128.290909 126.251134 
L 128.290909 96.155548 
" clip-path="url(#p0041d98f3b)" style="fill: none; stroke: #000000; stroke-width: 1.5"/>
    <path d="M 148.581818 188.2631 
L 148.581818 152.88698 
" clip-path="url(#p0041d98f3b)" style="fill: none; stroke: #000000; stroke-width: 1.5"/>
    <path d="M 168.872727 167.219965 
L 168.872727 112.754185 
" clip-path="url(#p0041d98f3b)" style="fill: none; stroke: #000000; stroke-width: 1.5"/>
    <path d="M 189.163636 175.879439 
L 189.163636 155.554971 
" clip-path="url(#p0041d98f3b)" style="fill: none; stroke: #000000; stroke-width: 1.5"/>
    <path d="M 209.454545 164.564533 
L 209.454545 120.630307 
" clip-path="url(#p0041d98f3b)" style="fill: none; stroke: #000000; stroke-width: 1.5"/>
    <path d="M 229.745455 183.302446 
L 229.745455 169.355675 
" clip-path="url(#p0041d98f3b)" style="fill: none; stroke: #000000; stroke-width: 1.5"/>
    <path d="M 250.036364 146.432712 
L 250.036364 129.367028 
" clip-path="url(#p0041d98f3b)" style="fill: none; stroke: #000000; stroke-width: 1.5"/>
    <path d="M 270.327273 78.342669 
L 270.327273 55.554545 
" clip-path="url(#p0041d98f3b)" style="fill: none; stroke: #000000; stroke-width: 1.5"/>
    <path d="M 290.618182 188.829238 
L 290.618182 171.236904 
" clip-path="url(#p0041d98f3b)" style="fill: none; stroke: #000000; stroke-width: 1.5"/>
    <path d="M 310.909091 166.565395 
L 310.909091 148.830038 
" clip-path="url(#p0041d98f3b)" style="fill: none; stroke: #000000; stroke-width: 1.5"/>
    <path d="M 331.2 131.79821 
L 331.2 100.599712 
" clip-path="url(#p0041d98f3b)" style="fill: none; stroke: #000000; stroke-width: 1.5"/>
    <path d="M 351.490909 170.720028 
L 351.490909 146.40234 
" clip-path="url(#p0041d98f3b)" style="fill: none; stroke: #000000; stroke-width: 1.5"/>
    <path d="M 371.781818 194.638772 
L 371.781818 121.24892 
" clip-path="url(#p0041d98f3b)" style="fill: none; stroke: #000000; stroke-width: 1.5"/>
    <path d="M 392.072727 157.66623 
L 392.072727 131.273893 
" clip-path="url(#p0041d98f3b)" style="fill: none; stroke: #000000; stroke-width: 1.5"/>
    <path d="M 412.363636 245.772756 
L 412.363636 189.317449 
" clip-path="url(#p0041d98f3b)" style="fill: none; stroke: #000000; stroke-width: 1.5"/>
    <path d="M 432.654545 172.825403 
L 432.654545 160.475549 
" clip-path="url(#p0041d98f3b)" style="fill: none; stroke: #000000; stroke-width: 1.5"/>
    <path d="M 452.945455 149.834449 
L 452.945455 114.895171 
" clip-path="url(#p0041d98f3b)" style="fill: none; stroke: #000000; stroke-width: 1.5"/>
    <path d="M 473.236364 129.185019 
L 473.236364 106.495248 
" clip-path="url(#p0041d98f3b)" style="fill: none; stroke: #000000; stroke-width: 1.5"/>
    <path d="M 493.527273 302.645455 
L 493.527273 277.444587 
" clip-path="url(#p0041d98f3b)" style="fill: none; stroke: #000000; stroke-width: 1.5"/>
    <path d="M 513.818182 151.557685 
L 513.818182 129.379754 
" clip-path="url(#p0041d98f3b)" style="fill: none; stroke: #000000; stroke-width: 1.5"/>
    <path d="M 534.109091 133.668961 
L 534.109091 81.59754 
" clip-path="url(#p0041d98f3b)" style="fill: none; stroke: #000000; stroke-width: 1.5"/>
    <path d="M 554.4 130.402344 
L 554.4 87.260208 
" clip-path="url(#p0041d98f3b)" style="fill: none; stroke: #000000; stroke-width: 1.5"/>
    <path d="M 574.690909 151.804451 
L 574.690909 140.659535 
" clip-path="url(#p0041d98f3b)" style="fill: none; stroke: #000000; stroke-width: 1.5"/>
    <path d="M 594.981818 114.422602 
L 594.981818 100.360253 
" clip-path="url(#p0041d98f3b)" style="fill: none; stroke: #000000; stroke-width: 1.5"/>
    <path d="M 615.272727 144.35493 
L 615.272727 124.101536 
" clip-path="url(#p0041d98f3b)" style="fill: none; stroke: #000000; stroke-width: 1.5"/>
    <path d="M 635.563636 130.433186 
L 635.563636 121.668663 
" clip-path="url(#p0041d98f3b)" style="fill: none; stroke: #000000; stroke-width: 1.5"/>
    <path d="M 655.854545 140.891643 
L 655.854545 123.345462 
" clip-path="url(#p0041d98f3b)" style="fill: none; stroke: #000000; stroke-width: 1.5"/>
    <path d="M 676.145455 122.325423 
L 676.145455 88.416735 
" clip-path="url(#p0041d98f3b)" style="fill: none; stroke: #000000; stroke-width: 1.5"/>
    <path d="M 696.436364 116.160482 
L 696.436364 83.767014 
" clip-path="url(#p0041d98f3b)" style="fill: none; stroke: #000000; stroke-width: 1.5"/>
    <path d="M 716.727273 137.956639 
L 716.727273 124.905896 
" clip-path="url(#p0041d98f3b)" style="fill: none; stroke: #000000; stroke-width: 1.5"/>
    <path d="M 737.018182 133.182553 
L 737.018182 112.152566 
" clip-path="url(#p0041d98f3b)" style="fill: none; stroke: #000000; stroke-width: 1.5"/>
    <path d="M 757.309091 132.610954 
L 757.309091 105.238621 
" clip-path="url(#p0041d98f3b)" style="fill: none; stroke: #000000; stroke-width: 1.5"/>
   </g>
   <g id="line2d_39"/>
   <g id="patch_35">
    <path d="M 108 315 
L 108 43.2 
" style="fill: none; stroke: #000000; stroke-width: 3; stroke-linejoin: miter; stroke-linecap: square"/>
   </g>
   <g id="patch_36">
    <path d="M 108 315 
L 777.6 315 
" style="fill: none; stroke: #000000; stroke-width: 3; stroke-linejoin: miter; stroke-linecap: square"/>
   </g>
  </g>
 </g>
 <defs>
  <clipPath id="p0041d98f3b">
   <rect x="108" y="43.2" width="669.6" height="271.8"/>
  </clipPath>
 </defs>
</svg>
