<?xml version="1.0" encoding="utf-8" standalone="no"?>
<!DOCTYPE svg PUBLIC "-//W3C//DTD SVG 1.1//EN"
  "http://www.w3.org/Graphics/SVG/1.1/DTD/svg11.dtd">
<svg xmlns:xlink="http://www.w3.org/1999/xlink" width="864pt" height="360pt" viewBox="0 0 864 360" xmlns="http://www.w3.org/2000/svg" version="1.1">
 <metadata>
  <rdf:RDF xmlns:dc="http://purl.org/dc/elements/1.1/" xmlns:cc="http://creativecommons.org/ns#" xmlns:rdf="http://www.w3.org/1999/02/22-rdf-syntax-ns#">
   <cc:Work>
    <dc:type rdf:resource="http://purl.org/dc/dcmitype/StillImage"/>
    <dc:date>2023-06-11T11:14:43.373350</dc:date>
    <dc:format>image/svg+xml</dc:format>
    <dc:creator>
     <cc:Agent>
      <dc:title>Matplotlib v3.6.3, https://matplotlib.org/</dc:title>
     </cc:Agent>
    </dc:creator>
   </cc:Work>
  </rdf:RDF>
 </metadata>
 <defs>
  <style type="text/css">*{stroke-linejoin: round; stroke-linecap: butt}</style>
 </defs>
 <g id="figure_1">
  <g id="patch_1">
   <path d="M 0 360 
L 864 360 
L 864 0 
L 0 0 
L 0 360 
z
" style="fill: none"/>
  </g>
  <g id="axes_1">
   <g id="patch_2">
    <path d="M 108 315 
L 777.6 315 
L 777.6 43.2 
L 108 43.2 
z
" style="fill: #ffffff"/>
   </g>
   <g id="patch_3">
    <path d="M 120.174545 195.894153 
L 136.407273 195.894153 
L 136.407273 123.572317 
L 120.174545 123.572317 
z
" clip-path="url(#pa435dba5ee)" style="fill: #1f77b4; opacity: 0.3"/>
   </g>
   <g id="patch_4">
    <path d="M 140.465455 195.894153 
L 156.698182 195.894153 
L 156.698182 254.11958 
L 140.465455 254.11958 
z
" clip-path="url(#pa435dba5ee)" style="fill: #1f77b4; opacity: 0.3"/>
   </g>
   <g id="patch_5">
    <path d="M 160.756364 195.894153 
L 176.989091 195.894153 
L 176.989091 144.433948 
L 160.756364 144.433948 
z
" clip-path="url(#pa435dba5ee)" style="fill: #1f77b4; opacity: 0.3"/>
   </g>
   <g id="patch_6">
    <path d="M 181.047273 195.894153 
L 197.28 195.894153 
L 197.28 103.088092 
L 181.047273 103.088092 
z
" clip-path="url(#pa435dba5ee)" style="fill: #1f77b4; opacity: 0.3"/>
   </g>
   <g id="patch_7">
    <path d="M 201.338182 195.894153 
L 217.570909 195.894153 
L 217.570909 258.703573 
L 201.338182 258.703573 
z
" clip-path="url(#pa435dba5ee)" style="fill: #1f77b4; opacity: 0.3"/>
   </g>
   <g id="patch_8">
    <path d="M 221.629091 195.894153 
L 237.861818 195.894153 
L 237.861818 232.676002 
L 221.629091 232.676002 
z
" clip-path="url(#pa435dba5ee)" style="fill: #1f77b4; opacity: 0.3"/>
   </g>
   <g id="patch_9">
    <path d="M 241.92 195.894153 
L 258.152727 195.894153 
L 258.152727 171.167941 
L 241.92 171.167941 
z
" clip-path="url(#pa435dba5ee)" style="fill: #1f77b4; opacity: 0.3"/>
   </g>
   <g id="patch_10">
    <path d="M 262.210909 195.894153 
L 278.443636 195.894153 
L 278.443636 92.488589 
L 262.210909 92.488589 
z
" clip-path="url(#pa435dba5ee)" style="fill: #1f77b4; opacity: 0.3"/>
   </g>
   <g id="patch_11">
    <path d="M 282.501818 195.894153 
L 298.734545 195.894153 
L 298.734545 223.017236 
L 282.501818 223.017236 
z
" clip-path="url(#pa435dba5ee)" style="fill: #1f77b4; opacity: 0.3"/>
   </g>
   <g id="patch_12">
    <path d="M 302.792727 195.894153 
L 319.025455 195.894153 
L 319.025455 206.096171 
L 302.792727 206.096171 
z
" clip-path="url(#pa435dba5ee)" style="fill: #1f77b4; opacity: 0.3"/>
   </g>
   <g id="patch_13">
    <path d="M 323.083636 195.894153 
L 339.316364 195.894153 
L 339.316364 156.319421 
L 323.083636 156.319421 
z
" clip-path="url(#pa435dba5ee)" style="fill: #1f77b4; opacity: 0.3"/>
   </g>
   <g id="patch_14">
    <path d="M 343.374545 195.894153 
L 359.607273 195.894153 
L 359.607273 198.87467 
L 343.374545 198.87467 
z
" clip-path="url(#pa435dba5ee)" style="fill: #1f77b4; opacity: 0.3"/>
   </g>
   <g id="patch_15">
    <path d="M 363.665455 195.894153 
L 379.898182 195.894153 
L 379.898182 183.321943 
L 363.665455 183.321943 
z
" clip-path="url(#pa435dba5ee)" style="fill: #1f77b4; opacity: 0.3"/>
   </g>
   <g id="patch_16">
    <path d="M 383.956364 195.894153 
L 400.189091 195.894153 
L 400.189091 107.474134 
L 383.956364 107.474134 
z
" clip-path="url(#pa435dba5ee)" style="fill: #1f77b4; opacity: 0.3"/>
   </g>
   <g id="patch_17">
    <path d="M 404.247273 195.894153 
L 420.48 195.894153 
L 420.48 243.426769 
L 404.247273 243.426769 
z
" clip-path="url(#pa435dba5ee)" style="fill: #1f77b4; opacity: 0.3"/>
   </g>
   <g id="patch_18">
    <path d="M 424.538182 195.894153 
L 440.770909 195.894153 
L 440.770909 239.727794 
L 424.538182 239.727794 
z
" clip-path="url(#pa435dba5ee)" style="fill: #1f77b4; opacity: 0.3"/>
   </g>
   <g id="patch_19">
    <path d="M 444.829091 195.894153 
L 461.061818 195.894153 
L 461.061818 149.321332 
L 444.829091 149.321332 
z
" clip-path="url(#pa435dba5ee)" style="fill: #1f77b4; opacity: 0.3"/>
   </g>
   <g id="patch_20">
    <path d="M 465.12 195.894153 
L 481.352727 195.894153 
L 481.352727 117.088047 
L 465.12 117.088047 
z
" clip-path="url(#pa435dba5ee)" style="fill: #1f77b4; opacity: 0.3"/>
   </g>
   <g id="patch_21">
    <path d="M 485.410909 195.894153 
L 501.643636 195.894153 
L 501.643636 271.548562 
L 485.410909 271.548562 
z
" clip-path="url(#pa435dba5ee)" style="fill: #1f77b4; opacity: 0.3"/>
   </g>
   <g id="patch_22">
    <path d="M 505.701818 195.894153 
L 521.934545 195.894153 
L 521.934545 226.17195 
L 505.701818 226.17195 
z
" clip-path="url(#pa435dba5ee)" style="fill: #1f77b4; opacity: 0.3"/>
   </g>
   <g id="patch_23">
    <path d="M 525.992727 195.894153 
L 542.225455 195.894153 
L 542.225455 154.165162 
L 525.992727 154.165162 
z
" clip-path="url(#pa435dba5ee)" style="fill: #1f77b4; opacity: 0.3"/>
   </g>
   <g id="patch_24">
    <path d="M 546.283636 195.894153 
L 562.516364 195.894153 
L 562.516364 167.236524 
L 546.283636 167.236524 
z
" clip-path="url(#pa435dba5ee)" style="fill: #1f77b4; opacity: 0.3"/>
   </g>
   <g id="patch_25">
    <path d="M 566.574545 195.894153 
L 582.807273 195.894153 
L 582.807273 163.732012 
L 566.574545 163.732012 
z
" clip-path="url(#pa435dba5ee)" style="fill: #1f77b4; opacity: 0.3"/>
   </g>
   <g id="patch_26">
    <path d="M 586.865455 195.894153 
L 603.098182 195.894153 
L 603.098182 169.639479 
L 586.865455 169.639479 
z
" clip-path="url(#pa435dba5ee)" style="fill: #1f77b4; opacity: 0.3"/>
   </g>
   <g id="patch_27">
    <path d="M 607.156364 195.894153 
L 623.389091 195.894153 
L 623.389091 163.016631 
L 607.156364 163.016631 
z
" clip-path="url(#pa435dba5ee)" style="fill: #1f77b4; opacity: 0.3"/>
   </g>
   <g id="patch_28">
    <path d="M 627.447273 195.894153 
L 643.68 195.894153 
L 643.68 157.149294 
L 627.447273 157.149294 
z
" clip-path="url(#pa435dba5ee)" style="fill: #1f77b4; opacity: 0.3"/>
   </g>
   <g id="patch_29">
    <path d="M 647.738182 195.894153 
L 663.970909 195.894153 
L 663.970909 192.188586 
L 647.738182 192.188586 
z
" clip-path="url(#pa435dba5ee)" style="fill: #1f77b4; opacity: 0.3"/>
   </g>
   <g id="patch_30">
    <path d="M 668.029091 195.894153 
L 684.261818 195.894153 
L 684.261818 145.963057 
L 668.029091 145.963057 
z
" clip-path="url(#pa435dba5ee)" style="fill: #1f77b4; opacity: 0.3"/>
   </g>
   <g id="patch_31">
    <path d="M 688.32 195.894153 
L 704.552727 195.894153 
L 704.552727 160.591197 
L 688.32 160.591197 
z
" clip-path="url(#pa435dba5ee)" style="fill: #1f77b4; opacity: 0.3"/>
   </g>
   <g id="patch_32">
    <path d="M 708.610909 195.894153 
L 724.843636 195.894153 
L 724.843636 176.468486 
L 708.610909 176.468486 
z
" clip-path="url(#pa435dba5ee)" style="fill: #1f77b4; opacity: 0.3"/>
   </g>
   <g id="patch_33">
    <path d="M 728.901818 195.894153 
L 745.134545 195.894153 
L 745.134545 186.320251 
L 728.901818 186.320251 
z
" clip-path="url(#pa435dba5ee)" style="fill: #1f77b4; opacity: 0.3"/>
   </g>
   <g id="patch_34">
    <path d="M 749.192727 195.894153 
L 765.425455 195.894153 
L 765.425455 172.999865 
L 749.192727 172.999865 
z
" clip-path="url(#pa435dba5ee)" style="fill: #1f77b4; opacity: 0.3"/>
   </g>
   <g id="matplotlib.axis_1">
    <g id="xtick_1">
     <g id="line2d_1">
      <defs>
       <path id="m3c8e25ccae" d="M 0 0 
L 0 3.5 
" style="stroke: #000000; stroke-width: 0.8"/>
      </defs>
      <g>
       <use xlink:href="#m3c8e25ccae" x="128.290909" y="315" style="stroke: #000000; stroke-width: 0.8"/>
      </g>
     </g>
     <g id="text_1">
      <!-- $E \rightarrow E$ Const -->
      <g transform="translate(83.064316 401.354289) rotate(-60)">
       <text>
        <tspan style="font: oblique 15px 'DejaVu Sans'" x="0 27.890625" y="-0.859375">EE</tspan>
        <tspan style="font: 15px 'DejaVu Sans'" x="12.399902 37.368164 42.13623 52.609863 61.787109 71.293945 79.108887" y="-0.859375">→ Const</tspan>
       </text>
      </g>
     </g>
    </g>
    <g id="xtick_2">
     <g id="line2d_2">
      <g>
       <use xlink:href="#m3c8e25ccae" x="148.581818" y="315" style="stroke: #000000; stroke-width: 0.8"/>
      </g>
     </g>
     <g id="text_2">
      <!-- $E \rightarrow E$ $y$ -->
      <g transform="translate(120.278838 371.980793) rotate(-60)">
       <text>
        <tspan style="font: oblique 15px 'DejaVu Sans'" x="0 27.890625 42.13623" y="-0.0625">EEy</tspan>
        <tspan style="font: 15px 'DejaVu Sans'" x="12.399902 37.368164" y="-0.0625">→ </tspan>
       </text>
      </g>
     </g>
    </g>
    <g id="xtick_3">
     <g id="line2d_3">
      <g>
       <use xlink:href="#m3c8e25ccae" x="168.872727" y="315" style="stroke: #000000; stroke-width: 0.8"/>
      </g>
     </g>
     <g id="text_3">
      <!-- $E \rightarrow E$ $x$ -->
      <g transform="translate(140.596134 371.996028) rotate(-60)">
       <text>
        <tspan style="font: oblique 15px 'DejaVu Sans'" x="0 27.890625 42.13623" y="-0.0625">EEx</tspan>
        <tspan style="font: 15px 'DejaVu Sans'" x="12.399902 37.368164" y="-0.0625">→ </tspan>
       </text>
      </g>
     </g>
    </g>
    <g id="xtick_4">
     <g id="line2d_4">
      <g>
       <use xlink:href="#m3c8e25ccae" x="189.163636" y="315" style="stroke: #000000; stroke-width: 0.8"/>
      </g>
     </g>
     <g id="text_4">
      <!-- $E \rightarrow E$ $x \, y$ -->
      <g transform="translate(155.235656 381.723579) rotate(-60)">
       <text>
        <tspan style="font: oblique 15px 'DejaVu Sans'" x="0 27.890625 42.13623 53.448535" y="-0.0625">EExy</tspan>
        <tspan style="font: 15px 'DejaVu Sans'" x="12.399902 37.368164" y="-0.0625">→ </tspan>
       </text>
      </g>
     </g>
    </g>
    <g id="xtick_5">
     <g id="line2d_5">
      <g>
       <use xlink:href="#m3c8e25ccae" x="209.454545" y="315" style="stroke: #000000; stroke-width: 0.8"/>
      </g>
     </g>
     <g id="text_5">
      <!-- $E \rightarrow E$ $y_{int}$ -->
      <g transform="translate(174.101565 384.191751) rotate(-60)">
       <text>
        <tspan style="font: oblique 15px 'DejaVu Sans'" x="0 27.890625 42.13623" y="-0.0625">EEy</tspan>
        <tspan style="font: 15px 'DejaVu Sans'" x="12.399902 37.368164" y="-0.0625">→ </tspan>
        <tspan style="font: oblique 10.5px 'DejaVu Sans'" x="51.013184 53.93042 60.585205" y="2.3984375">int</tspan>
       </text>
      </g>
     </g>
    </g>
    <g id="xtick_6">
     <g id="line2d_6">
      <g>
       <use xlink:href="#m3c8e25ccae" x="229.745455" y="315" style="stroke: #000000; stroke-width: 0.8"/>
      </g>
     </g>
     <g id="text_6">
      <!-- $E \rightarrow E$ $x \, y_{int}$ -->
      <g transform="translate(188.767475 393.934537) rotate(-60)">
       <text>
        <tspan style="font: oblique 15px 'DejaVu Sans'" x="0 27.890625 42.13623 53.448535" y="-0.0625">EExy</tspan>
        <tspan style="font: 15px 'DejaVu Sans'" x="12.399902 37.368164" y="-0.0625">→ </tspan>
        <tspan style="font: oblique 10.5px 'DejaVu Sans'" x="62.325488 65.242724 71.89751" y="2.3984375">int</tspan>
       </text>
      </g>
     </g>
    </g>
    <g id="xtick_7">
     <g id="line2d_7">
      <g>
       <use xlink:href="#m3c8e25ccae" x="250.036364" y="315" style="stroke: #000000; stroke-width: 0.8"/>
      </g>
     </g>
     <g id="text_7">
      <!-- $E \rightarrow E$ $x_{int}$ -->
      <g transform="translate(214.70977 384.206986) rotate(-60)">
       <text>
        <tspan style="font: oblique 15px 'DejaVu Sans'" x="0 27.890625 42.13623" y="-0.0625">EEx</tspan>
        <tspan style="font: 15px 'DejaVu Sans'" x="12.399902 37.368164" y="-0.0625">→ </tspan>
        <tspan style="font: oblique 10.5px 'DejaVu Sans'" x="51.013184 53.93042 60.585205" y="2.3984375">int</tspan>
       </text>
      </g>
     </g>
    </g>
    <g id="xtick_8">
     <g id="line2d_8">
      <g>
       <use xlink:href="#m3c8e25ccae" x="270.327273" y="315" style="stroke: #000000; stroke-width: 0.8"/>
      </g>
     </g>
     <g id="text_8">
      <!-- $E \rightarrow E$ $x_{int} \, y$ -->
      <g transform="translate(229.349293 393.934537) rotate(-60)">
       <text>
        <tspan style="font: oblique 15px 'DejaVu Sans'" x="0 27.890625 42.13623 67.547656" y="-0.0625">EExy</tspan>
        <tspan style="font: 15px 'DejaVu Sans'" x="12.399902 37.368164" y="-0.0625">→ </tspan>
        <tspan style="font: oblique 10.5px 'DejaVu Sans'" x="51.013184 53.93042 60.585205" y="2.3984375">int</tspan>
       </text>
      </g>
     </g>
    </g>
    <g id="xtick_9">
     <g id="line2d_9">
      <g>
       <use xlink:href="#m3c8e25ccae" x="290.618182" y="315" style="stroke: #000000; stroke-width: 0.8"/>
      </g>
     </g>
     <g id="text_9">
      <!-- $E \rightarrow E$ $y_{int} \, y$ -->
      <g transform="translate(249.640202 393.934537) rotate(-60)">
       <text>
        <tspan style="font: oblique 15px 'DejaVu Sans'" x="0 27.890625 42.13623 67.547656" y="-0.0625">EEyy</tspan>
        <tspan style="font: 15px 'DejaVu Sans'" x="12.399902 37.368164" y="-0.0625">→ </tspan>
        <tspan style="font: oblique 10.5px 'DejaVu Sans'" x="51.013184 53.93042 60.585205" y="2.3984375">int</tspan>
       </text>
      </g>
     </g>
    </g>
    <g id="xtick_10">
     <g id="line2d_10">
      <g>
       <use xlink:href="#m3c8e25ccae" x="310.909091" y="315" style="stroke: #000000; stroke-width: 0.8"/>
      </g>
     </g>
     <g id="text_10">
      <!-- $E \rightarrow E$ $x_{int} \, x$ -->
      <g transform="translate(269.957498 393.949772) rotate(-60)">
       <text>
        <tspan style="font: oblique 15px 'DejaVu Sans'" x="0 27.890625 42.13623 67.547656" y="-0.0625">EExx</tspan>
        <tspan style="font: 15px 'DejaVu Sans'" x="12.399902 37.368164" y="-0.0625">→ </tspan>
        <tspan style="font: oblique 10.5px 'DejaVu Sans'" x="51.013184 53.93042 60.585205" y="2.3984375">int</tspan>
       </text>
      </g>
     </g>
    </g>
    <g id="xtick_11">
     <g id="line2d_11">
      <g>
       <use xlink:href="#m3c8e25ccae" x="331.2" y="315" style="stroke: #000000; stroke-width: 0.8"/>
      </g>
     </g>
     <g id="text_11">
      <!-- $E \rightarrow E$ $w$ -->
      <g transform="translate(301.273407 374.853911) rotate(-60)">
       <text>
        <tspan style="font: oblique 15px 'DejaVu Sans'" x="0 27.890625 42.13623" y="-0.0625">EEw</tspan>
        <tspan style="font: 15px 'DejaVu Sans'" x="12.399902 37.368164" y="-0.0625">→ </tspan>
       </text>
      </g>
     </g>
    </g>
    <g id="xtick_12">
     <g id="line2d_12">
      <g>
       <use xlink:href="#m3c8e25ccae" x="351.490909" y="315" style="stroke: #000000; stroke-width: 0.8"/>
      </g>
     </g>
     <g id="text_12">
      <!-- $E \rightarrow E$ $w \, y$ -->
      <g transform="translate(315.837929 384.711367) rotate(-60)">
       <text>
        <tspan style="font: oblique 15px 'DejaVu Sans'" x="0 27.890625 42.13623 56.839648" y="-0.0625">EEwy</tspan>
        <tspan style="font: 15px 'DejaVu Sans'" x="12.399902 37.368164" y="-0.0625">→ </tspan>
       </text>
      </g>
     </g>
    </g>
    <g id="xtick_13">
     <g id="line2d_13">
      <g>
       <use xlink:href="#m3c8e25ccae" x="371.781818" y="315" style="stroke: #000000; stroke-width: 0.8"/>
      </g>
     </g>
     <g id="text_13">
      <!-- $E \rightarrow E$ $w \, x$ -->
      <g transform="translate(336.155225 384.726601) rotate(-60)">
       <text>
        <tspan style="font: oblique 15px 'DejaVu Sans'" x="0 27.890625 42.13623 56.839648" y="-0.0625">EEwx</tspan>
        <tspan style="font: 15px 'DejaVu Sans'" x="12.399902 37.368164" y="-0.0625">→ </tspan>
       </text>
      </g>
     </g>
    </g>
    <g id="xtick_14">
     <g id="line2d_14">
      <g>
       <use xlink:href="#m3c8e25ccae" x="392.072727" y="315" style="stroke: #000000; stroke-width: 0.8"/>
      </g>
     </g>
     <g id="text_14">
      <!-- $E \rightarrow E$ $w \, x \, y$ -->
      <g transform="translate(350.794747 394.454152) rotate(-60)">
       <text>
        <tspan style="font: oblique 15px 'DejaVu Sans'" x="0 27.890625 42.13623 56.839648 68.151953" y="-0.0625">EEwxy</tspan>
        <tspan style="font: 15px 'DejaVu Sans'" x="12.399902 37.368164" y="-0.0625">→ </tspan>
       </text>
      </g>
     </g>
    </g>
    <g id="xtick_15">
     <g id="line2d_15">
      <g>
       <use xlink:href="#m3c8e25ccae" x="412.363636" y="315" style="stroke: #000000; stroke-width: 0.8"/>
      </g>
     </g>
     <g id="text_15">
      <!-- $E \rightarrow E$ $w y_{int}$ -->
      <g transform="translate(370.935656 394.71396) rotate(-60)">
       <text>
        <tspan style="font: oblique 15px 'DejaVu Sans'" x="0 27.890625 42.13623 54.404297" y="-0.0625">EEwy</tspan>
        <tspan style="font: 15px 'DejaVu Sans'" x="12.399902 37.368164" y="-0.0625">→ </tspan>
        <tspan style="font: oblique 10.5px 'DejaVu Sans'" x="63.28125 66.198486 72.853271" y="2.3984375">int</tspan>
       </text>
      </g>
     </g>
    </g>
    <g id="xtick_16">
     <g id="line2d_16">
      <g>
       <use xlink:href="#m3c8e25ccae" x="432.654545" y="315" style="stroke: #000000; stroke-width: 0.8"/>
      </g>
     </g>
     <g id="text_16">
      <!-- $E \rightarrow E$ $w x \, y_{int}$ -->
      <g transform="translate(385.526565 404.58665) rotate(-60)">
       <text>
        <tspan style="font: oblique 15px 'DejaVu Sans'" x="0 27.890625 42.13623 54.404297 65.716601" y="-0.0625">EEwxy</tspan>
        <tspan style="font: 15px 'DejaVu Sans'" x="12.399902 37.368164" y="-0.0625">→ </tspan>
        <tspan style="font: oblique 10.5px 'DejaVu Sans'" x="74.593555 77.510791 84.165576" y="2.3984375">int</tspan>
       </text>
      </g>
     </g>
    </g>
    <g id="xtick_17">
     <g id="line2d_17">
      <g>
       <use xlink:href="#m3c8e25ccae" x="452.945455" y="315" style="stroke: #000000; stroke-width: 0.8"/>
      </g>
     </g>
     <g id="text_17">
      <!-- $E \rightarrow E$ $w x_{int}$ -->
      <g transform="translate(411.543861 394.729194) rotate(-60)">
       <text>
        <tspan style="font: oblique 15px 'DejaVu Sans'" x="0 27.890625 42.13623 54.404297" y="-0.0625">EEwx</tspan>
        <tspan style="font: 15px 'DejaVu Sans'" x="12.399902 37.368164" y="-0.0625">→ </tspan>
        <tspan style="font: oblique 10.5px 'DejaVu Sans'" x="63.28125 66.198486 72.853271" y="2.3984375">int</tspan>
       </text>
      </g>
     </g>
    </g>
    <g id="xtick_18">
     <g id="line2d_18">
      <g>
       <use xlink:href="#m3c8e25ccae" x="473.236364" y="315" style="stroke: #000000; stroke-width: 0.8"/>
      </g>
     </g>
     <g id="text_18">
      <!-- $E \rightarrow E$ $w x_{int} \, y$ -->
      <g transform="translate(426.108384 404.58665) rotate(-60)">
       <text>
        <tspan style="font: oblique 15px 'DejaVu Sans'" x="0 27.890625 42.13623 54.404297 79.815723" y="-0.0625">EEwxy</tspan>
        <tspan style="font: 15px 'DejaVu Sans'" x="12.399902 37.368164" y="-0.0625">→ </tspan>
        <tspan style="font: oblique 10.5px 'DejaVu Sans'" x="63.28125 66.198486 72.853271" y="2.3984375">int</tspan>
       </text>
      </g>
     </g>
    </g>
    <g id="xtick_19">
     <g id="line2d_19">
      <g>
       <use xlink:href="#m3c8e25ccae" x="493.527273" y="315" style="stroke: #000000; stroke-width: 0.8"/>
      </g>
     </g>
     <g id="text_19">
      <!-- $E \rightarrow E$ $w y_{int} \, y$ -->
      <g transform="translate(446.399293 404.58665) rotate(-60)">
       <text>
        <tspan style="font: oblique 15px 'DejaVu Sans'" x="0 27.890625 42.13623 54.404297 79.815723" y="-0.0625">EEwyy</tspan>
        <tspan style="font: 15px 'DejaVu Sans'" x="12.399902 37.368164" y="-0.0625">→ </tspan>
        <tspan style="font: oblique 10.5px 'DejaVu Sans'" x="63.28125 66.198486 72.853271" y="2.3984375">int</tspan>
       </text>
      </g>
     </g>
    </g>
    <g id="xtick_20">
     <g id="line2d_20">
      <g>
       <use xlink:href="#m3c8e25ccae" x="513.818182" y="315" style="stroke: #000000; stroke-width: 0.8"/>
      </g>
     </g>
     <g id="text_20">
      <!-- $E \rightarrow E$ $w x_{int} \, x$ -->
      <g transform="translate(466.716589 404.601884) rotate(-60)">
       <text>
        <tspan style="font: oblique 15px 'DejaVu Sans'" x="0 27.890625 42.13623 54.404297 79.815723" y="-0.0625">EEwxx</tspan>
        <tspan style="font: 15px 'DejaVu Sans'" x="12.399902 37.368164" y="-0.0625">→ </tspan>
        <tspan style="font: oblique 10.5px 'DejaVu Sans'" x="63.28125 66.198486 72.853271" y="2.3984375">int</tspan>
       </text>
      </g>
     </g>
    </g>
    <g id="xtick_21">
     <g id="line2d_21">
      <g>
       <use xlink:href="#m3c8e25ccae" x="534.109091" y="315" style="stroke: #000000; stroke-width: 0.8"/>
      </g>
     </g>
     <g id="text_21">
      <!-- $\tau \, y_{int}$ -->
      <g transform="translate(514.131111 357.56147) rotate(-60)">
       <text>
        <tspan style="font: oblique 15px 'DejaVu Sans'" x="0 11.466113" y="-0.796875">τy</tspan>
        <tspan style="font: oblique 10.5px 'DejaVu Sans'" x="20.343066 23.260303 29.915088" y="1.6640625">int</tspan>
       </text>
      </g>
     </g>
    </g>
    <g id="xtick_22">
     <g id="line2d_22">
      <g>
       <use xlink:href="#m3c8e25ccae" x="554.4" y="315" style="stroke: #000000; stroke-width: 0.8"/>
      </g>
     </g>
     <g id="text_22">
      <!-- $\tau \, x \, y_{int}$ -->
      <g transform="translate(528.72202 367.43416) rotate(-60)">
       <text>
        <tspan style="font: oblique 15px 'DejaVu Sans'" x="0 11.466113 22.778418" y="-0.796875">τxy</tspan>
        <tspan style="font: oblique 10.5px 'DejaVu Sans'" x="31.655371 34.572607 41.227392" y="1.6640625">int</tspan>
       </text>
      </g>
     </g>
    </g>
    <g id="xtick_23">
     <g id="line2d_23">
      <g>
       <use xlink:href="#m3c8e25ccae" x="574.690909" y="315" style="stroke: #000000; stroke-width: 0.8"/>
      </g>
     </g>
     <g id="text_23">
      <!-- $\tau \, x_{int}$ -->
      <g transform="translate(554.739316 357.576705) rotate(-60)">
       <text>
        <tspan style="font: oblique 15px 'DejaVu Sans'" x="0 11.466113" y="-0.796875">τx</tspan>
        <tspan style="font: oblique 10.5px 'DejaVu Sans'" x="20.343066 23.260303 29.915088" y="1.6640625">int</tspan>
       </text>
      </g>
     </g>
    </g>
    <g id="xtick_24">
     <g id="line2d_24">
      <g>
       <use xlink:href="#m3c8e25ccae" x="594.981818" y="315" style="stroke: #000000; stroke-width: 0.8"/>
      </g>
     </g>
     <g id="text_24">
      <!-- $\tau \, x_{int} \, y$ -->
      <g transform="translate(569.303838 367.43416) rotate(-60)">
       <text>
        <tspan style="font: oblique 15px 'DejaVu Sans'" x="0 11.466113 36.877539" y="-0.796875">τxy</tspan>
        <tspan style="font: oblique 10.5px 'DejaVu Sans'" x="20.343066 23.260303 29.915088" y="1.6640625">int</tspan>
       </text>
      </g>
     </g>
    </g>
    <g id="xtick_25">
     <g id="line2d_25">
      <g>
       <use xlink:href="#m3c8e25ccae" x="615.272727" y="315" style="stroke: #000000; stroke-width: 0.8"/>
      </g>
     </g>
     <g id="text_25">
      <!-- $\tau \, y_{int} \, y$ -->
      <g transform="translate(589.594747 367.43416) rotate(-60)">
       <text>
        <tspan style="font: oblique 15px 'DejaVu Sans'" x="0 11.466113 36.877539" y="-0.796875">τyy</tspan>
        <tspan style="font: oblique 10.5px 'DejaVu Sans'" x="20.343066 23.260303 29.915088" y="1.6640625">int</tspan>
       </text>
      </g>
     </g>
    </g>
    <g id="xtick_26">
     <g id="line2d_26">
      <g>
       <use xlink:href="#m3c8e25ccae" x="635.563636" y="315" style="stroke: #000000; stroke-width: 0.8"/>
      </g>
     </g>
     <g id="text_26">
      <!-- $\tau \, x_{int} \, x$ -->
      <g transform="translate(609.912043 367.449394) rotate(-60)">
       <text>
        <tspan style="font: oblique 15px 'DejaVu Sans'" x="0 11.466113 36.877539" y="-0.796875">τxx</tspan>
        <tspan style="font: oblique 10.5px 'DejaVu Sans'" x="20.343066 23.260303 29.915088" y="1.6640625">int</tspan>
       </text>
      </g>
     </g>
    </g>
    <g id="xtick_27">
     <g id="line2d_27">
      <g>
       <use xlink:href="#m3c8e25ccae" x="655.854545" y="315" style="stroke: #000000; stroke-width: 0.8"/>
      </g>
     </g>
     <g id="text_27">
      <!-- $\tau \, w y_{int}$ -->
      <g transform="translate(629.726565 368.213583) rotate(-60)">
       <text>
        <tspan style="font: oblique 15px 'DejaVu Sans'" x="0 11.466113 23.73418" y="-0.796875">τwy</tspan>
        <tspan style="font: oblique 10.5px 'DejaVu Sans'" x="32.611133 35.528369 42.183154" y="1.6640625">int</tspan>
       </text>
      </g>
     </g>
    </g>
    <g id="xtick_28">
     <g id="line2d_28">
      <g>
       <use xlink:href="#m3c8e25ccae" x="676.145455" y="315" style="stroke: #000000; stroke-width: 0.8"/>
      </g>
     </g>
     <g id="text_28">
      <!-- $\tau \, w x \, y_{int}$ -->
      <g transform="translate(644.392475 377.956368) rotate(-60)">
       <text>
        <tspan style="font: oblique 15px 'DejaVu Sans'" x="0 11.466113 23.73418 35.046484" y="-0.796875">τwxy</tspan>
        <tspan style="font: oblique 10.5px 'DejaVu Sans'" x="43.923437 46.840674 53.495459" y="1.6640625">int</tspan>
       </text>
      </g>
     </g>
    </g>
    <g id="xtick_29">
     <g id="line2d_29">
      <g>
       <use xlink:href="#m3c8e25ccae" x="696.436364" y="315" style="stroke: #000000; stroke-width: 0.8"/>
      </g>
     </g>
     <g id="text_29">
      <!-- $\tau \, w x_{int}$ -->
      <g transform="translate(670.33477 368.228817) rotate(-60)">
       <text>
        <tspan style="font: oblique 15px 'DejaVu Sans'" x="0 11.466113 23.73418" y="-0.796875">τwx</tspan>
        <tspan style="font: oblique 10.5px 'DejaVu Sans'" x="32.611133 35.528369 42.183154" y="1.6640625">int</tspan>
       </text>
      </g>
     </g>
    </g>
    <g id="xtick_30">
     <g id="line2d_30">
      <g>
       <use xlink:href="#m3c8e25ccae" x="716.727273" y="315" style="stroke: #000000; stroke-width: 0.8"/>
      </g>
     </g>
     <g id="text_30">
      <!-- $\tau \, w x_{int} \, y$ -->
      <g transform="translate(684.974293 377.956368) rotate(-60)">
       <text>
        <tspan style="font: oblique 15px 'DejaVu Sans'" x="0 11.466113 23.73418 49.145605" y="-0.796875">τwxy</tspan>
        <tspan style="font: oblique 10.5px 'DejaVu Sans'" x="32.611133 35.528369 42.183154" y="1.6640625">int</tspan>
       </text>
      </g>
     </g>
    </g>
    <g id="xtick_31">
     <g id="line2d_31">
      <g>
       <use xlink:href="#m3c8e25ccae" x="737.018182" y="315" style="stroke: #000000; stroke-width: 0.8"/>
      </g>
     </g>
     <g id="text_31">
      <!-- $\tau \, w y_{int} \, y$ -->
      <g transform="translate(705.265202 377.956368) rotate(-60)">
       <text>
        <tspan style="font: oblique 15px 'DejaVu Sans'" x="0 11.466113 23.73418 49.145605" y="-0.796875">τwyy</tspan>
        <tspan style="font: oblique 10.5px 'DejaVu Sans'" x="32.611133 35.528369 42.183154" y="1.6640625">int</tspan>
       </text>
      </g>
     </g>
    </g>
    <g id="xtick_32">
     <g id="line2d_32">
      <g>
       <use xlink:href="#m3c8e25ccae" x="757.309091" y="315" style="stroke: #000000; stroke-width: 0.8"/>
      </g>
     </g>
     <g id="text_32">
      <!-- $\tau \, w x_{int} \, x$ -->
      <g transform="translate(725.582498 377.971603) rotate(-60)">
       <text>
        <tspan style="font: oblique 15px 'DejaVu Sans'" x="0 11.466113 23.73418 49.145605" y="-0.796875">τwxx</tspan>
        <tspan style="font: oblique 10.5px 'DejaVu Sans'" x="32.611133 35.528369 42.183154" y="1.6640625">int</tspan>
       </text>
      </g>
     </g>
    </g>
   </g>
   <g id="matplotlib.axis_2">
    <g id="ytick_1">
     <g id="line2d_33">
      <defs>
       <path id="md4d7e1e9d8" d="M 0 0 
L -3.5 0 
" style="stroke: #000000; stroke-width: 0.8"/>
      </defs>
      <g>
       <use xlink:href="#md4d7e1e9d8" x="108" y="310.960152" style="stroke: #000000; stroke-width: 0.8"/>
      </g>
     </g>
     <g id="text_33">
      <text style="font: 15px 'DejaVu Sans', 'Bitstream Vera Sans', 'Computer Modern Sans Serif', 'Lucida Grande', 'Verdana', 'Geneva', 'Lucid', 'Arial', 'Helvetica', 'Avant Garde', sans-serif; text-anchor: end" x="101" y="316.65898" transform="rotate(-0 101 316.65898)">−0.04</text>
     </g>
    </g>
    <g id="ytick_2">
     <g id="line2d_34">
      <g>
       <use xlink:href="#md4d7e1e9d8" x="108" y="253.427153" style="stroke: #000000; stroke-width: 0.8"/>
      </g>
     </g>
     <g id="text_34">
      <text style="font: 15px 'DejaVu Sans', 'Bitstream Vera Sans', 'Computer Modern Sans Serif', 'Lucida Grande', 'Verdana', 'Geneva', 'Lucid', 'Arial', 'Helvetica', 'Avant Garde', sans-serif; text-anchor: end" x="101" y="259.125981" transform="rotate(-0 101 259.125981)">−0.02</text>
     </g>
    </g>
    <g id="ytick_3">
     <g id="line2d_35">
      <g>
       <use xlink:href="#md4d7e1e9d8" x="108" y="195.894153" style="stroke: #000000; stroke-width: 0.8"/>
      </g>
     </g>
     <g id="text_35">
      <text style="font: 15px 'DejaVu Sans', 'Bitstream Vera Sans', 'Computer Modern Sans Serif', 'Lucida Grande', 'Verdana', 'Geneva', 'Lucid', 'Arial', 'Helvetica', 'Avant Garde', sans-serif; text-anchor: end" x="101" y="201.592981" transform="rotate(-0 101 201.592981)">0.00</text>
     </g>
    </g>
    <g id="ytick_4">
     <g id="line2d_36">
      <g>
       <use xlink:href="#md4d7e1e9d8" x="108" y="138.361154" style="stroke: #000000; stroke-width: 0.8"/>
      </g>
     </g>
     <g id="text_36">
      <text style="font: 15px 'DejaVu Sans', 'Bitstream Vera Sans', 'Computer Modern Sans Serif', 'Lucida Grande', 'Verdana', 'Geneva', 'Lucid', 'Arial', 'Helvetica', 'Avant Garde', sans-serif; text-anchor: end" x="101" y="144.059982" transform="rotate(-0 101 144.059982)">0.02</text>
     </g>
    </g>
    <g id="ytick_5">
     <g id="line2d_37">
      <g>
       <use xlink:href="#md4d7e1e9d8" x="108" y="80.828154" style="stroke: #000000; stroke-width: 0.8"/>
      </g>
     </g>
     <g id="text_37">
      <text style="font: 15px 'DejaVu Sans', 'Bitstream Vera Sans', 'Computer Modern Sans Serif', 'Lucida Grande', 'Verdana', 'Geneva', 'Lucid', 'Arial', 'Helvetica', 'Avant Garde', sans-serif; text-anchor: end" x="101" y="86.526982" transform="rotate(-0 101 86.526982)">0.04</text>
     </g>
    </g>
    <g id="text_38">
     <text style="font: 15px 'DejaVu Sans', 'Bitstream Vera Sans', 'Computer Modern Sans Serif', 'Lucida Grande', 'Verdana', 'Geneva', 'Lucid', 'Arial', 'Helvetica', 'Avant Garde', sans-serif; text-anchor: middle" x="47.9125" y="179.1" transform="rotate(-90 47.9125 179.1)">Coefficient</text>
    </g>
   </g>
   <g id="LineCollection_1">
    <path d="M 128.290909 164.450421 
L 128.290909 82.694212 
" clip-path="url(#pa435dba5ee)" style="fill: none; stroke: #000000; stroke-width: 1.5"/>
    <path d="M 148.581818 302.645455 
L 148.581818 205.593706 
" clip-path="url(#pa435dba5ee)" style="fill: none; stroke: #000000; stroke-width: 1.5"/>
    <path d="M 168.872727 160.83628 
L 168.872727 128.031616 
" clip-path="url(#pa435dba5ee)" style="fill: none; stroke: #000000; stroke-width: 1.5"/>
    <path d="M 189.163636 150.621638 
L 189.163636 55.554545 
" clip-path="url(#pa435dba5ee)" style="fill: none; stroke: #000000; stroke-width: 1.5"/>
    <path d="M 209.454545 290.828489 
L 209.454545 226.578658 
" clip-path="url(#pa435dba5ee)" style="fill: none; stroke: #000000; stroke-width: 1.5"/>
    <path d="M 229.745455 262.9134 
L 229.745455 202.438605 
" clip-path="url(#pa435dba5ee)" style="fill: none; stroke: #000000; stroke-width: 1.5"/>
    <path d="M 250.036364 182.498739 
L 250.036364 159.837143 
" clip-path="url(#pa435dba5ee)" style="fill: none; stroke: #000000; stroke-width: 1.5"/>
    <path d="M 270.327273 107.437157 
L 270.327273 77.540021 
" clip-path="url(#pa435dba5ee)" style="fill: none; stroke: #000000; stroke-width: 1.5"/>
    <path d="M 290.618182 228.157077 
L 290.618182 217.877395 
" clip-path="url(#pa435dba5ee)" style="fill: none; stroke: #000000; stroke-width: 1.5"/>
    <path d="M 310.909091 213.616917 
L 310.909091 198.575424 
" clip-path="url(#pa435dba5ee)" style="fill: none; stroke: #000000; stroke-width: 1.5"/>
    <path d="M 331.2 166.126612 
L 331.2 146.512229 
" clip-path="url(#pa435dba5ee)" style="fill: none; stroke: #000000; stroke-width: 1.5"/>
    <path d="M 351.490909 222.355246 
L 351.490909 175.394094 
" clip-path="url(#pa435dba5ee)" style="fill: none; stroke: #000000; stroke-width: 1.5"/>
    <path d="M 371.781818 196.045798 
L 371.781818 170.598089 
" clip-path="url(#pa435dba5ee)" style="fill: none; stroke: #000000; stroke-width: 1.5"/>
    <path d="M 392.072727 159.376568 
L 392.072727 55.5717 
" clip-path="url(#pa435dba5ee)" style="fill: none; stroke: #000000; stroke-width: 1.5"/>
    <path d="M 412.363636 257.485366 
L 412.363636 229.368172 
" clip-path="url(#pa435dba5ee)" style="fill: none; stroke: #000000; stroke-width: 1.5"/>
    <path d="M 432.654545 267.437433 
L 432.654545 212.018156 
" clip-path="url(#pa435dba5ee)" style="fill: none; stroke: #000000; stroke-width: 1.5"/>
    <path d="M 452.945455 160.965571 
L 452.945455 137.677093 
" clip-path="url(#pa435dba5ee)" style="fill: none; stroke: #000000; stroke-width: 1.5"/>
    <path d="M 473.236364 131.192197 
L 473.236364 102.983897 
" clip-path="url(#pa435dba5ee)" style="fill: none; stroke: #000000; stroke-width: 1.5"/>
    <path d="M 493.527273 280.463789 
L 493.527273 262.633334 
" clip-path="url(#pa435dba5ee)" style="fill: none; stroke: #000000; stroke-width: 1.5"/>
    <path d="M 513.818182 247.806424 
L 513.818182 204.537475 
" clip-path="url(#pa435dba5ee)" style="fill: none; stroke: #000000; stroke-width: 1.5"/>
    <path d="M 534.109091 179.986677 
L 534.109091 128.343647 
" clip-path="url(#pa435dba5ee)" style="fill: none; stroke: #000000; stroke-width: 1.5"/>
    <path d="M 554.4 179.688167 
L 554.4 154.784881 
" clip-path="url(#pa435dba5ee)" style="fill: none; stroke: #000000; stroke-width: 1.5"/>
    <path d="M 574.690909 180.209702 
L 574.690909 147.254321 
" clip-path="url(#pa435dba5ee)" style="fill: none; stroke: #000000; stroke-width: 1.5"/>
    <path d="M 594.981818 181.613488 
L 594.981818 157.665471 
" clip-path="url(#pa435dba5ee)" style="fill: none; stroke: #000000; stroke-width: 1.5"/>
    <path d="M 615.272727 181.939832 
L 615.272727 144.093431 
" clip-path="url(#pa435dba5ee)" style="fill: none; stroke: #000000; stroke-width: 1.5"/>
    <path d="M 635.563636 186.472572 
L 635.563636 127.826017 
" clip-path="url(#pa435dba5ee)" style="fill: none; stroke: #000000; stroke-width: 1.5"/>
    <path d="M 655.854545 193.862516 
L 655.854545 190.514656 
" clip-path="url(#pa435dba5ee)" style="fill: none; stroke: #000000; stroke-width: 1.5"/>
    <path d="M 676.145455 167.904433 
L 676.145455 124.021681 
" clip-path="url(#pa435dba5ee)" style="fill: none; stroke: #000000; stroke-width: 1.5"/>
    <path d="M 696.436364 177.121398 
L 696.436364 144.060995 
" clip-path="url(#pa435dba5ee)" style="fill: none; stroke: #000000; stroke-width: 1.5"/>
    <path d="M 716.727273 183.268716 
L 716.727273 169.668257 
" clip-path="url(#pa435dba5ee)" style="fill: none; stroke: #000000; stroke-width: 1.5"/>
    <path d="M 737.018182 192.65072 
L 737.018182 179.989782 
" clip-path="url(#pa435dba5ee)" style="fill: none; stroke: #000000; stroke-width: 1.5"/>
    <path d="M 757.309091 179.411263 
L 757.309091 166.588466 
" clip-path="url(#pa435dba5ee)" style="fill: none; stroke: #000000; stroke-width: 1.5"/>
   </g>
   <g id="line2d_38"/>
   <g id="patch_35">
    <path d="M 108 315 
L 108 43.2 
" style="fill: none; stroke: #000000; stroke-width: 3; stroke-linejoin: miter; stroke-linecap: square"/>
   </g>
   <g id="patch_36">
    <path d="M 108 315 
L 777.6 315 
" style="fill: none; stroke: #000000; stroke-width: 3; stroke-linejoin: miter; stroke-linecap: square"/>
   </g>
  </g>
 </g>
 <defs>
  <clipPath id="pa435dba5ee">
   <rect x="108" y="43.2" width="669.6" height="271.8"/>
  </clipPath>
 </defs>
</svg>
